<svg xmlns="http://www.w3.org/2000/svg" viewBox="0 0 44 42"><path d="M25.48778,40.62433h-20.8a2.5,2.5,0,0,1-2.5-2.5v-20.8a2.5,2.5,0,0,1,2.5-2.5h20.8a2.5,2.5,0,0,1,2.5,2.5v20.8A2.5,2.5,0,0,1,25.48778,40.62433Zm-20.8-24.4a1.1,1.1,0,0,0-1.1,1.1h0v20.8a1.1,1.1,0,0,0,1.1,1.1h20.8a1.1,1.1,0,0,0,1.1-1.1v-20.8a1.1,1.1,0,0,0-1.1-1.1Z" style="fill:#383d40"/><path d="M12.78778,23.02433a.6.6,0,0,1-.6-.6c0-.4.2-.7.6-.7h10a.7.7,0,0,1,.6.7.6.6,0,0,1-.6.6Z" style="fill:#383d40"/><path d="M7.38777,23.02433a.6.6,0,0,1-.6-.6h0a.7.7,0,0,1,.6-.7h1.4a.7.7,0,0,1,.7.7v0a.7.7,0,0,1-.7.6Z" style="fill:#383d40"/><path d="M12.78778,28.32433a.6.6,0,1,1,0-1.2h10a.6.6,0,1,1,0,1.2Z" style="fill:#383d40"/><path d="M7.38777,28.32433a.6.6,0,1,1,0-1.2h1.4c.4,0,.7.2.7.6s-.3.6-.7.6Z" style="fill:#383d40"/><path d="M12.78778,33.72432c-.4,0-.6-.3-.6-.7a.6.6,0,0,1,.6-.6h10a.6.6,0,0,1,.6.6.7.7,0,0,1-.6.7Z" style="fill:#383d40"/><path d="M7.38777,33.72432a.7.7,0,0,1-.6-.7.6.6,0,0,1,.6-.6h1.4a.65192.65192,0,1,1,0,1.3h-1.4Z" style="fill:#383d40"/></svg>